<svg id="Ebene_1" data-name="Ebene 1" xmlns="http://www.w3.org/2000/svg" viewBox="0 0 217 285"><defs><style>.cls-1{fill:#ffe1e1;}.cls-2{fill:#cc1d1d;}.cls-3{fill:#fff;}</style></defs><title>logo</title><path class="cls-1" d="M36.34785,95.53058c-.14453-1.37374-30.51962,15.4773-32.223,74.87092C4.00545,172.37747,4,174.35941,4,176.34082a104.77558,104.77558,0,0,0,104.65739,104.6503.81076.81076,0,0,0,.23276,0h.07359a104.777,104.777,0,0,0,104.351-104.6503c0-2.90152-.59633-11.02609-.59633-11.02609-3.19695-41.62258-36.74047-68.31862-51.18728-93.08459C138.63738,32.98362,134.34479,3.008,134.34479,3.008c-25.67595,18.37282-47.0991,49.33888-54.58265,78.885C74.56687,102.463,66.7819,124.0034,66.68542,139.27629,66.68542,139.27629,38.8858,119.653,36.34785,95.53058Z"/><path class="cls-2" d="M44.791,104.17051c-.12977-1.23346-27.40315,13.89686-28.93262,67.22558-.10718,1.7742-.11207,3.55376-.11207,5.33284A94.07656,94.07656,0,0,0,109.71676,270.693a.72777.72777,0,0,0,.209,0h.06608a94.0778,94.0778,0,0,0,93.69539-93.96408c0-2.60524-.53544-9.90018-.53544-9.90018-2.87049-37.37235-32.98876-61.34236-45.96036-83.57938-20.556-35.23892-24.41029-62.15362-24.41029-62.15362C109.727,37.59246,90.49148,65.39645,83.7721,91.92548c-4.66476,18.4696-11.65478,37.8104-11.74141,51.52371C72.03069,143.44919,47.06979,125.82973,44.791,104.17051Z"/><path class="cls-3" d="M69.23474,207.3826a18.9877,18.9877,0,0,1-7.8262,1.40694c-8.35364,0-14.64123-5.27567-14.64123-14.9926,0-9.2768,6.28759-15.56439,15.47637-15.56439a15.8868,15.8868,0,0,1,7.03472,1.31892l-.92317,3.12232a13.9218,13.9218,0,0,0-5.97951-1.23161c-6.94669,0-11.56327,4.44053-11.56327,12.22309,0,7.25441,4.17682,11.91464,11.38758,11.91464a15.30525,15.30525,0,0,0,6.24322-1.23089Z"/><path class="cls-3" d="M80.88675,181.96961H71.8733v-3.25329H93.813v3.25329H84.75549v26.38053H80.88675Z"/><path class="cls-3" d="M121.24941,193.22515c0,10.20069-6.19957,15.60876-13.76171,15.60876-7.82621,0-13.3223-6.06788-13.3223-15.037,0-9.40848,5.84783-15.56439,13.7617-15.56439C116.01738,178.23255,121.24941,184.43211,121.24941,193.22515Zm-22.99486.48377c0,6.33124,3.42934,12.00338,9.45285,12.00338,6.06718,0,9.49651-5.58411,9.49651-12.3111,0-5.89113-3.07724-12.047-9.45249-12.047C101.42017,181.35416,98.25455,187.20235,98.25455,193.70892Z"/><path class="cls-3" d="M151.54376,193.22515c0,10.20069-6.19956,15.60876-13.7617,15.60876-7.82621,0-13.3223-6.06788-13.3223-15.037,0-9.40848,5.84747-15.56439,13.7617-15.56439C146.31174,178.23255,151.54376,184.43211,151.54376,193.22515Zm-22.99485.48377c0,6.33124,3.42933,12.00338,9.45285,12.00338,6.06717,0,9.49651-5.58411,9.49651-12.3111,0-5.89113-3.07724-12.047-9.45214-12.047C131.71417,181.35416,128.54891,187.20235,128.54891,193.70892Z"/><path class="cls-3" d="M156.51243,178.71632h3.82508v26.42419H173v3.20963H156.51243Z"/></svg>